<?xml version="1.0" encoding="UTF-8"?>
<svg xmlns="http://www.w3.org/2000/svg" viewBox="0 0 270 270" width="270" height="270">
<path d="M91.75 25.41C101.5 23.17 108.49 33.21 112.27 40.49C121.46 58.21 121.9 87.78 95.74 89.32C59.13 91.47 66.49 31.22 91.75 25.41ZM174.4 25.72C183.98 24.03 190.7 33.58 194.19 41.09C201.54 56.91 204.34 87.02 179.75 88.97C174.45 89.39 169.33 87.95 165.64 85.16C160.71 81.42 156.37 82.06 153.37 74.87C147.15 59.96 156.48 28.87 174.4 25.72ZM96.4 33.24C90.16 34.75 105.64 52.99 107.14 52.45C112.05 50.7 101.44 32.01 96.4 33.24ZM237.85 92.73C248.52 92.23 254.39 106.01 256.94 114.27C262.95 133.77 259.5 152.5 237.27 155.25C201.12 159.73 212.08 93.94 237.85 92.73ZM28.78 93.14C42.84 90.14 51.09 107.52 54.52 118.24C57.81 128.56 59.18 148.56 45.1 152.31C41.65 153.22 36.86 152.45 33.25 152.88C31.27 153.11 30.27 155.27 28.76 155.32C-1.12 156.31 7.9 97.6 28.78 93.14ZM33.87 100.61C30 102.2 42.74 117.88 45.99 115.73C50.2 112.95 38.79 98.59 33.87 100.61ZM61.7 248.01C60.8 247.27 59.9 246.53 59 245.78C62.56 240.18 55.08 234.14 52.21 228.57C47.88 220.14 47.37 208.18 49.28 199.08C55.52 169.24 72.48 175.55 83.64 159.38C89.62 150.71 87.2 138.04 92.13 128.37C105.59 102.01 139.58 92.35 163.95 110.3C174.29 117.91 181.2 130.17 183.11 142.75C183.84 147.6 183.18 152.3 185.41 156.84C192.06 170.37 210.32 170.68 217.67 189.6C228.43 217.3 212.14 250.28 181.13 252.76C172.06 253.49 171.01 248.24 165.75 248.31C164.08 248.33 164.1 250.39 162.73 250.41C152.87 250.54 142.76 245.05 132.25 245.32C119.28 245.67 108.04 252.32 95.23 253.31C82.77 254.28 66.98 244.36 64.24 244.48C63.01 244.54 62.5 247.04 61.7 248.01ZM231.85 103.18C228.25 103.88 221.16 115.73 226.15 117.63C229.92 119.06 238.73 101.83 231.85 103.18ZM130.9 113.23C115.39 115.33 102.95 129.16 100.54 144.25C99.34 151.84 100.14 158.71 95.75 165.5C83.54 184.37 58.82 179.8 58.06 209.75C57.93 214.55 58.85 219.54 60.78 223.93C77.05 260.89 111.51 233.51 138.51 235.75C156.64 237.25 173.74 249.73 191.76 241.05C212.15 231.24 218.28 203.22 202.52 186.24C194.35 177.45 181.86 176.25 175.18 165.59C170.15 157.55 171.92 149.14 169.77 140.41C165.53 123.21 148.75 110.82 130.9 113.23ZM132.3 116.65C148.82 114.1 163.27 127.91 166.73 143.03C168.68 151.54 167.4 159.2 172.18 167.1C178.66 177.82 190.25 178.98 198.5 187.25C212.29 201.09 208.67 226.95 190.58 235.29C173.86 243 156.46 232.06 139.25 230.96C123.69 229.96 111.93 236.81 97.23 238.83C77.64 241.53 60.98 226.63 62.41 206.75C64.07 183.52 86.55 184.13 97.74 168.49C111.04 149.89 97.88 121.97 132.3 116.65Z" fill="#3b0b6d" fill-rule="evenodd" stroke="#3b0b6d" stroke-width="0.25" stroke-linejoin="round"/>
<path d="M162.75 25.46C167.4 27.07 175.47 16.04 185.98 22.97C206.59 36.56 215.7 80.78 185.83 92.89C166.25 100.84 147.75 84.89 146.19 65.75C145.02 51.33 154.81 32.85 162.75 25.46ZM89.84 21.02C122.65 16.63 140.22 83.47 100.34 93.93C54.48 105.97 57.98 25.28 89.84 21.02ZM91.75 25.41C66.49 31.22 59.13 91.47 95.74 89.32C121.9 87.78 121.46 58.21 112.27 40.49C108.49 33.21 101.5 23.17 91.75 25.41ZM174.4 25.72C156.48 28.87 147.15 59.96 153.37 74.87C156.37 82.06 160.71 81.42 165.64 85.16C169.33 87.95 174.45 89.39 179.75 88.97C204.34 87.02 201.54 56.91 194.19 41.09C190.7 33.58 183.98 24.03 174.4 25.72ZM96.4 33.24C101.44 32.01 112.05 50.7 107.14 52.45C105.64 52.99 90.16 34.75 96.4 33.24ZM30.34 88.03C64.68 87.82 76.36 159.17 35.23 161.12C4.45 162.58 1.09 132.46 8.95 110C11.96 101.39 19.81 88.1 30.34 88.03ZM235.34 88.08C266.88 85.7 279.46 156.58 240.25 160.97C207.24 164.67 203.34 126.85 215.88 105.29C220.08 98.06 226.02 88.79 235.34 88.08ZM237.85 92.73C212.08 93.94 201.12 159.73 237.27 155.25C259.5 152.5 262.95 133.77 256.94 114.27C254.39 106.01 248.52 92.23 237.85 92.73ZM28.78 93.14C7.9 97.6 -1.12 156.31 28.76 155.32C30.27 155.27 31.27 153.11 33.25 152.88C36.86 152.45 41.65 153.22 45.1 152.31C59.18 148.56 57.81 128.56 54.52 118.24C51.09 107.52 42.84 90.14 28.78 93.14ZM61.7 248.01C62.5 247.04 63.01 244.54 64.24 244.48C66.98 244.36 82.77 254.28 95.23 253.31C108.04 252.32 119.28 245.67 132.25 245.32C142.76 245.05 152.87 250.54 162.73 250.41C164.1 250.39 164.08 248.33 165.75 248.31C171.01 248.24 172.06 253.49 181.13 252.76C212.14 250.28 228.43 217.3 217.67 189.6C210.32 170.68 192.06 170.37 185.41 156.84C183.18 152.3 183.84 147.6 183.11 142.75C181.2 130.17 174.29 117.91 163.95 110.3C139.58 92.35 105.59 102.01 92.13 128.37C87.2 138.04 89.62 150.71 83.64 159.38C72.48 175.55 55.52 169.24 49.28 199.08C47.37 208.18 47.88 220.14 52.21 228.57C55.08 234.14 62.56 240.18 59 245.78C43.21 238.96 41.8 206.13 46.07 192.76C49.45 182.21 57.2 171.36 67.26 165.98C71.67 163.63 76.56 161.73 79.71 157.54C85.73 149.53 83.69 135.63 88.29 126.2C101.79 98.59 143.03 85.37 167.49 107.32C176.13 115.06 182.31 123.45 185.97 134.75C188 141.02 186.25 149.78 189.55 155.45C196.43 167.27 213.61 167.8 221.89 186.8C236.78 221 213.42 255.58 177.73 258.7C163.68 259.93 150.29 251.84 136.5 250.39C112.88 247.92 84.44 271.78 61.7 248.01ZM33.87 100.61C38.79 98.59 50.2 112.95 45.99 115.73C42.74 117.88 30 102.2 33.87 100.61ZM231.85 103.18C238.73 101.83 229.92 119.06 226.15 117.63C221.16 115.73 228.25 103.88 231.85 103.18ZM130.9 113.23C148.75 110.82 165.53 123.21 169.77 140.41C171.92 149.14 170.15 157.55 175.18 165.59C181.86 176.25 194.35 177.45 202.52 186.24C218.28 203.22 212.15 231.24 191.76 241.05C173.74 249.73 156.64 237.25 138.51 235.75C111.51 233.51 77.05 260.89 60.78 223.93C58.85 219.54 57.93 214.55 58.06 209.75C58.82 179.8 83.54 184.37 95.75 165.5C100.14 158.71 99.34 151.84 100.54 144.25C102.95 129.16 115.39 115.33 130.9 113.23ZM132.3 116.65C97.88 121.97 111.04 149.89 97.74 168.49C86.55 184.13 64.07 183.52 62.41 206.75C60.98 226.63 77.64 241.53 97.23 238.83C111.93 236.81 123.69 229.96 139.25 230.96C156.46 232.06 173.86 243 190.58 235.29C208.67 226.95 212.29 201.09 198.5 187.25C190.25 178.98 178.66 177.82 172.18 167.1C167.4 159.2 168.68 151.54 166.73 143.03C163.27 127.91 148.82 114.1 132.3 116.65Z" fill="#b872ea" fill-rule="evenodd" stroke="#b872ea" stroke-width="0.25" stroke-linejoin="round"/>
</svg>